<svg width="30" height="30" fill="none" xmlns="http://www.w3.org/2000/svg"><path d="M10.766 19.854c.438-.413.968-.925 1.59-1.537.396-.37.723-.707.98-1.006.259-.3.465-.603.62-.91.156-.306.264-.631.324-.98.06-.347.09-.76.09-1.24 0-.503-.06-.97-.18-1.402a2.645 2.645 0 00-.629-1.123c-.299-.319-.704-.57-1.213-.755-.51-.186-1.148-.28-1.915-.28-2.732 0-4.099 1.277-4.099 3.83v.413H9.14c0-.24.006-.497.018-.772a3.06 3.06 0 01.126-.765c.072-.234.186-.425.341-.575.156-.15.378-.225.665-.225.432 0 .716.153.854.458.139.306.207.71.207 1.215 0 .24-.012.46-.036.664-.024.205-.108.43-.252.674a5.48 5.48 0 01-.665.863c-.299.33-.719.733-1.258 1.215-.276.24-.579.534-.908.88-.33.349-.64.756-.935 1.222-.294.468-.54 1-.737 1.6-.198.6-.297 1.277-.297 2.032h8.126v-2.338H9.876c.155-.357.452-.744.89-1.158zm12.001-8.979H19.53l-4.135 7.677v2.337h4.566v2.463h2.806v-2.463h1.185v-2.337h-1.185v-7.677zm-2.806 7.677h-2.175l2.14-4.262h.035v4.262zm5.172 9.65H4.867a5.147 5.147 0 01-4.224-2.215C.768 28.217 2.606 30 4.867 30h20.266c2.264 0 4.101-1.78 4.226-4.013a5.149 5.149 0 01-4.226 2.215z" fill="#E1E1E1"/><path d="M25.133 1.236h-.613V.899a.899.899 0 10-1.798 0v.337H21.07V.899a.9.9 0 00-1.798 0v.337h-1.651V.899a.899.899 0 10-1.798 0v.337h-1.651V.899a.9.9 0 00-1.798 0v.337h-1.651V.899a.9.9 0 00-1.798 0v.337h-1.65V.899a.9.9 0 00-1.798 0v.337h-.613A4.253 4.253 0 00.618 5.484v17.57a4.254 4.254 0 004.249 4.25h20.266a4.255 4.255 0 004.25-4.25V5.484a4.254 4.254 0 00-4.25-4.248zm-1.96-.337a.45.45 0 01.899 0v5.826a.45.45 0 01-.899 0V.9zm-3.449 0a.45.45 0 01.899 0v5.826a.45.45 0 01-.899 0V.9zm-3.449 0a.45.45 0 01.899 0v5.826a.45.45 0 01-.899 0V.9zm-3.449 0a.45.45 0 01.899 0v5.826a.45.45 0 01-.899 0V.9zm-3.449 0a.45.45 0 01.899 0v5.826a.45.45 0 01-.899 0V.9zm-3.449 0a.45.45 0 01.899 0v5.826a.45.45 0 01-.899 0V.9zm21.29 22.155a2.086 2.086 0 01-2.084 2.083H4.867a2.086 2.086 0 01-2.084-2.083V5.484c0-1.149.935-2.084 2.084-2.084h.613v2.26a1.394 1.394 0 00-.504 1.066 1.403 1.403 0 002.805 0c0-.43-.199-.809-.504-1.067V3.4H8.93v2.26a1.394 1.394 0 00-.504 1.066 1.403 1.403 0 002.805 0c0-.43-.199-.809-.504-1.067V3.4h1.651v2.26a1.394 1.394 0 00-.503 1.066 1.403 1.403 0 002.804 0c0-.43-.198-.809-.503-1.067V3.4h1.651v2.26a1.394 1.394 0 00-.503 1.066 1.404 1.404 0 002.805 0c0-.43-.199-.809-.504-1.067V3.4h1.652v2.26a1.394 1.394 0 00-.504 1.066 1.403 1.403 0 002.805 0c0-.43-.199-.809-.504-1.067V3.4h1.651v2.26a1.394 1.394 0 00-.503 1.066 1.403 1.403 0 002.805 0c0-.43-.198-.809-.504-1.067V3.4h.613c1.148 0 2.083.935 2.083 2.084v17.57z" fill="#E1E1E1"/></svg>