<svg width="30" height="30" fill="none" xmlns="http://www.w3.org/2000/svg"><g clip-path="url(#clip0)" fill="#1AB9CE"><path d="M27.188 0H6.563a.937.937 0 00-.938.938V3.75H7.5V1.875h18.75v26.25H7.5V26.25H5.625v2.813c0 .518.42.937.938.937h20.625c.518 0 .937-.42.937-.938V.939A.937.937 0 0027.187 0z"/><path d="M11.136 19.962l1.326 1.326L18.75 15l-6.288-6.288-1.325 1.326 4.024 4.024H1.875v1.876h13.286l-4.024 4.024z"/></g><defs><clipPath id="clip0"><path fill="#fff" d="M0 0h30v30H0z"/></clipPath></defs></svg>