<svg width="30" height="30" fill="none" xmlns="http://www.w3.org/2000/svg"><g clip-path="url(#clip0)"><path d="M27.363 3.574H2.637A2.641 2.641 0 000 6.211v17.578a2.641 2.641 0 002.637 2.637h24.726A2.641 2.641 0 0030 23.789V6.211a2.641 2.641 0 00-2.637-2.637zM27 5.332L15.056 17.275 3.009 5.332H27zM1.758 23.425V6.567l8.465 8.393-8.465 8.465zM3 24.668l8.47-8.47 2.969 2.942c.343.34.898.34 1.24-.003l2.894-2.894L27 24.668H3.001zm25.241-1.243L19.817 15l8.425-8.425v16.85z" fill="#1AB9CE"/></g><defs><clipPath id="clip0"><path fill="#fff" d="M0 0h30v30H0z"/></clipPath></defs></svg>