<svg width="30" height="30" fill="none" xmlns="http://www.w3.org/2000/svg"><g clip-path="url(#clip0)" fill="#E1E1E1"><path d="M14.786 14.451c1.986 0 3.705-.712 5.11-2.117 1.404-1.404 2.116-3.123 2.116-5.109 0-1.985-.712-3.703-2.117-5.109C18.49.712 16.771 0 14.786 0c-1.985 0-3.704.712-5.109 2.117C8.273 3.52 7.56 5.24 7.56 7.225c0 1.986.713 3.705 2.118 5.11 1.404 1.404 3.123 2.116 5.108 2.116zm12.644 8.618a17.845 17.845 0 00-.244-1.896 14.935 14.935 0 00-.466-1.906 9.409 9.409 0 00-.783-1.777 6.71 6.71 0 00-1.182-1.54 5.21 5.21 0 00-1.697-1.066 5.864 5.864 0 00-2.167-.393c-.306 0-.602.126-1.174.498-.352.23-.764.495-1.223.79-.393.25-.926.484-1.583.697a6.286 6.286 0 01-1.936.312 6.291 6.291 0 01-1.936-.313c-.657-.212-1.19-.446-1.582-.697-.456-.29-.868-.556-1.225-.789-.571-.372-.868-.498-1.174-.498-.78 0-1.509.132-2.166.393-.66.26-1.23.62-1.698 1.066a6.71 6.71 0 00-1.18 1.54 9.43 9.43 0 00-.784 1.777 14.973 14.973 0 00-.466 1.906 17.79 17.79 0 00-.243 1.896c-.04.574-.06 1.17-.06 1.772 0 1.566.498 2.833 1.48 3.768C4.91 29.532 6.192 30 7.752 30h14.445c1.56 0 2.843-.468 3.812-1.39.982-.935 1.48-2.203 1.48-3.77 0-.604-.02-1.2-.06-1.771z"/></g><defs><clipPath id="clip0"><path fill="#fff" d="M0 0h30v30H0z"/></clipPath></defs></svg>